<svg id="Logo" xmlns="http://www.w3.org/2000/svg" viewBox="0 0 735.06 186.74"><defs><style>.cls-1{fill:#1b1c20;}</style></defs><title>Artboard 1</title><line class="cls-1" x1="123.78" y1="107.8" x2="123.77" y2="107.83"/><path class="cls-1" d="M133.18,88.65a3,3,0,0,0,3-2.93c-.45-3.72-3.93-6-7.09-7.36-5.54-1.39-10.84.33-14.45,2.13a7.83,7.83,0,0,0-3.32,5.23,3,3,0,0,0,3,2.93c2.93,0,6.38-2.65,6.28,1.22,0,0,0,.77,0,1.18a2.4,2.4,0,0,1-4.81,0V89.8s-.52-2-2.93-.63-1.57,5.12-.52,6.17,3.66,3.66,7,2.19c3.14-1.38,4.26-1.37,4.38-6.48h0c.12,5.12,1.23,5.11,4.38,6.48,3.34,1.46,6-1.15,7-2.19s1.88-4.81-.52-6.17-2.93.63-2.93.63v1.25a2.4,2.4,0,1,1-4.81,0c0-.41,0-1.16,0-1.16C126.85,86,130.25,88.65,133.18,88.65Z"/><path class="cls-1" d="M139.2,104.91c-7.61,0-14.47-6.83-15.35-7.74a.13.13,0,0,0-.19,0c-.88.91-7.71,7.74-15.32,7.74h-18s23.67,5,28.85,3.76a25.07,25.07,0,0,1,4.5-.89,27.82,27.82,0,0,1,4.72.89c5.18,1.25,28.86-3.76,28.86-3.76Z"/><circle class="cls-1" cx="92.34" cy="82.8" r="2.82"/><path class="cls-1" d="M123.77,23C87.08,23,57.33,49.25,57.33,81.6a52.6,52.6,0,0,0,6,24.37c.88-.07,1.77-.12,2.67-.12a30.85,30.85,0,0,1,12.57,2.59A20.91,20.91,0,0,1,88.83,97.13c13.8-6.37,16.62-16.2,17.24-19.26s-2.82-7.6-11.91-7.29-13.8,10.66-18.5,14.11-4.08-1.88-4.08-1.88c0-14.74,11.6-38.88,26-42,11.52-2.5,20,6.6,23,10.36a4.12,4.12,0,0,0,6.45,0c3-3.76,11.45-12.86,22.94-10.36,14.39,3.14,26,27.28,26,42,0,0,.63,5.33-4.07,1.88s-9.38-13.8-18.45-14.11-12.51,4.24-11.88,7.29,3.44,12.89,17.2,19.26c4.8,2.22,8.19,6.46,10.2,11.31a30.86,30.86,0,0,1,12.56-2.58c.9,0,1.79,0,2.67.12a52.6,52.6,0,0,0,6-24.37C190.22,49.25,160.47,23,123.77,23ZM92.34,75.28a7.52,7.52,0,1,1-7.52,7.52A7.52,7.52,0,0,1,92.34,75.28Zm62.86,15a7.52,7.52,0,1,1,7.52-7.52A7.52,7.52,0,0,1,155.21,90.33Z"/><circle class="cls-1" cx="155.21" cy="82.8" r="2.82"/><path class="cls-1" d="M66,109.28C55.09,109.28,46.2,115,46.2,122S55.09,134.73,66,134.73,85.85,129,85.85,122,77,109.28,66,109.28Z"/><path class="cls-1" d="M181.52,109.28c-10.93,0-19.83,5.71-19.83,12.72s8.89,12.72,19.83,12.72S201.35,129,201.35,122,192.45,109.28,181.52,109.28Z"/><path class="cls-1" d="M66,138.16a33,33,0,0,1-5.18-.42c.62,3.08,2.28,12,6.75,37.53.72-6.26,1.49-18.3.42-37.18C67.36,138.13,66.7,138.16,66,138.16Z"/><path class="cls-1" d="M46,130.22c1.26,11.19,4.82,31.11,14.72,42.73L54,135.79A21.28,21.28,0,0,1,46,130.22Z"/><path class="cls-1" d="M72.64,137.48c1.53,1.84,2.37,4.73,2.49,8.63.13,4.22-.25,9.87-.63,15.34-.34,5-.71,10.45-.53,13.72,2.57-6.08,8.49-22.34,7.79-41.3A27.09,27.09,0,0,1,72.64,137.48Z"/><path class="cls-1" d="M172.42,146.11c.12-3.9,1-6.79,2.49-8.63a27.09,27.09,0,0,1-9.12-3.62c-.7,19,5.23,35.22,7.79,41.3.18-3.27-.19-8.74-.53-13.72C172.67,156,172.28,150.33,172.42,146.11Z"/><path class="cls-1" d="M193.59,135.79l-6.79,37.16c9.9-11.62,13.46-31.54,14.72-42.73A21.28,21.28,0,0,1,193.59,135.79Z"/><path class="cls-1" d="M181.52,138.16c-.67,0-1.33,0-2-.07-1.07,18.89-.3,30.92.42,37.18,4.47-25.56,6.14-34.45,6.75-37.53A33,33,0,0,1,181.52,138.16Z"/><path class="cls-1" d="M216.57,60.13l.18.18v.18l-.18.18h-.18l-.18-.18v-.18l.18-.18Zm1.07-1.24h.18l.36.36-.36.36h-.18l-.36-.36Zm3-3a1.92,1.92,0,0,1,.53,1.24v.36l-.36.36h-.71l-.18-.18h-.18c0,.36-.12.53-.36.53h-.18l-.36-.36v-.18c0-.24.24-.36.71-.36Q219.59,56.58,220.65,55.87ZM233.1,68.49h.18l1.07,1.24-.18.18v.18l.18.18h.18l.53-.18q1.29,1.6,13.33,5.51.13.36,1.78.89,0-.44.71-.53l.71.53-.36.53a14.18,14.18,0,0,1,5.87,7.64,28.73,28.73,0,0,1,.53,5.15q0,13.24-10.84,17.77a17,17,0,0,1-5.33.89h-1.6q-9.69,0-14-10.49a20.4,20.4,0,0,1-1.24-7.11l.18-.18h5.15q.36,0,.71,3.73,2.58,8,10.13,8h.71q7.2,0,10-7.82l.36-3.73v-.36q0-8.4-15.11-12.62l-.53-.18a1.12,1.12,0,0,1-.36-.89L234.7,77a14.19,14.19,0,0,1-4.44-3l1.07-.89-.89-.18v-.18c0-.24.18-.36.53-.36l.89.18.36-.89q-.53-.18-.53-1.07v-.18a3.87,3.87,0,0,1,1.42-1.6Zm-5.87-.36.18.18v.18l-.18.18v.18q1.42.71,1.42,1.78l-.53.89.18.18q-.71.09-.71.53l-.18-.18-.89.36a2.29,2.29,0,0,1-1.6-2.13,3.22,3.22,0,0,1,2.13-2ZM241.81,48q10.26,0,13.69,10.13a27.06,27.06,0,0,1,.89,5.15l-.18.18h-5l-1.42-4.8q-3-4.8-5.87-4.8,0,.53-.36.53h-.71v-.71h-2.13q-5.64,0-8.35,6.58l-.53,3.38a16.91,16.91,0,0,0,1.24,4.8l-2,.89L229.72,69l-.53.18q-1.29-2.31-1.6-2.31a1.21,1.21,0,0,1-.89-.53l-.18.18a4.43,4.43,0,0,1-.36-2V62.8l1.6-4.09v-.18h-.18q-.71,2.13-1.07,2.13l-.18-.18q1.16-3.73,2-4.44l-.18-.18v-.18Q232.56,48,241.81,48Zm-14.75,4.09h.18l.36.36-.36.36h-.18l-.36-.36Zm-.18,15.46h.36V68h-.36Zm1.07-9.6v.18h.18l.53-1.42Q228.39,56.75,227.94,58Zm.53,6.75L228.12,66v.18h.18l.36-1.24v-.18Zm.71-5.51-.18.89v.18h.18l.18-.71v-.36ZM229,63v.36h.18V63Zm1.42-9.78v.36h.18V53.2Zm2.13,22.22v.18h.53v-.18Zm.89-3.91h.36v-.36Zm.71-1.07v.18h.36v-.18Zm1.6-8.18H237l.18.18.18-.18h.36l.18.89-.18.18.18.18-1.07.71h-.71q-.27,0-.71-1.24Q235.76,63,235.76,62.26Zm3.91,1.07a2,2,0,0,1,1.24,1.07v.18q-.22,1.6-1.6,1.6-1.24-.62-1.24-.89v-.53Q238.07,63.33,239.67,63.33Zm1.07,11.73-.18.53h.53l-.18-.53Zm.71,1.6v.18l1.24.18h.53l.36-.36-1.24-.18Zm.71-22.4h.36l.36.36v.89l-.89.18-.36-1.07Zm10.13,17.42.36.36v1.07q0,.31-.89.53l-.53-1.24a.47.47,0,0,0,.53-.53l.18-.18Zm.53-2,.53.53-.53.53h-.18q-.4,0-.53-.89l.18-.18Zm1.24-4.27q.27,0,.53.71,0,.49-1.24,1.07h-.53l-.36-.36.36-.36q.35,0,.36-.89l.18-.18ZM255,53h.18l.53.53v.18l-.36.36H255l-.53-.53Z"/><path class="cls-1" d="M258,50.18h5l.36.36V75.6H263v-.36h-.36l.18.89-.18.18h-.36l-.18-.71-.18.18h-.18q-2-.27-2-.71h.18l1.42.36q0-.36.71-.36v-.18q-4.27-1.69-4.44-2.13V50.53Zm-.18,23.11,1.42.53v.53H259q-1.42-.58-1.42-.89Zm.36,1.6H259a1.92,1.92,0,0,0,1.42.89v.36l-.89-.18a2.51,2.51,0,0,1,.71,1.78l-.71.36-1.42-.36v.18l.18.53h-.18l-.18.18h-.18l-.18-.18v-3.2l.89.18ZM261,77.37q1.24.62,1.24.89-.22,1.24-.71,1.24l.18.18V80l-2.13.53v.18h.18l1.42-.36v.18c0,.24.18.36.53.36l.18.18v.18l-.53.18.18.18v.18a4.43,4.43,0,0,1-1.78,1.24q0,.71-.53.71H259v.18h.36v.18l-.18.18v.18h.71l-.18.18v.18l.89-.36-.18.18v.18l.18.18-.18.18.36.36-1.24.71a.47.47,0,0,0,.53.53v.36l-.36.36q0-.4-1.78-.71l-.36-.53.18-.53-.18-.89V79.51q0-.44.71-.53l1.24.18L259.4,79v-.36l.89.18h.36l-.18-.18v-.36h.89v-.18q-.89-.13-.89-.53ZM258,87.5h.36l.18.18.18-.18H259v.36h-.36v.53l.18-.18H259l.18.18v.53l-.36.36q-.31-.71-.71-.71l.36-.53-.89-.18ZM259,93.37h.18l.18.18.18-.18h.36v1.24c0,.24-.18.36-.53.36v.18h.36v.36l-.71.71-.36-.36h-.18V96l.53.53-.18.18v.89l.36.53-.36.36h-.18q0-.4-1.07-.71V94.08l.53-.53h.18q.31,0,.71,1.24h.18v-.36l-.18-.18h.53v-.18q-.53,0-.53-.36Zm.89,4.8q.89,0,.89.36l1.24-.18H263l.36.36v9.42l-.36.36h-5l-.36-.36v-6.58l.18-.18.53-.18V101l-.18-.89.18-.18-.71-.71.18-.18H258l.18.18h.18Q258.34,98.88,259.94,98.17Zm-1.78-26.84v.18l.89.18-.36-.36Zm0,11.91v.36h.18v-.36Zm.53,7.64v.36h-.36Zm.18-12.62H259l.18.53H259l-.53-.18Zm-.36,5.33v.18h.36v-.18Zm.18-1.78V82H259v-.18Zm.36-2.31v.18h.53v-.18Zm.53,10.67h.71v.89l.18.18v.18h-.36a.79.79,0,0,0-.89-.89Zm1.07-13.69,1.07.18.53-.18.18.18v.18l-.18.18.18.18v.18l-.18.18v.18l-1.6-.71Zm.53,8.18.36.36v.18h-.36l-.36-.36.18-.18Zm.71-4.44.18.18v.36h-.18l-.36-.36.18-.18Zm-.36,6.58h.36v.36h-.36Zm.18-15.29v.18h.36v-.18Zm.53,14.75h.36v.18h-.36Z"/><path class="cls-1" d="M300.19,65.46h.53l.89.53v.36l-.18.89c.24,0,.36-.24.36-.71h.36q9.06,7.29,9.06,18.49-.13,2.84-.53,2.84l.18.53q0,4.53-4.62,11.2-7,8.89-18,8.89-13.46,0-20.62-13.69a24.39,24.39,0,0,1-2-9.6,22.65,22.65,0,0,1,8.53-18.13h.18l.53,1.07q0,1.24-.36,1.24l.18.18V71l.18.89a1,1,0,0,0-.71,1.07l.18.53h.89l.18-.18h.18v.18a18.66,18.66,0,0,0-3.91,11.73,19.83,19.83,0,0,0,.89,5.87l-1.78.89v.18H271l1.07-.18.18.18.18-.18H273l.18.89V93a5.73,5.73,0,0,1-3.2,2.31l-.18.18v.36H270q.8,0,3.38-2.49l1.07,1.6v.36q-.53,0-.53.36v.18l.89-.18H275q0,.4,1.78,2.31v.18h-.36v.36l.53-.18q5.29,4.62,11.2,4.62h.53a15.74,15.74,0,0,0,12.44-5.87l.71.18.36-.36.53.36.18-1.24-.53-.53v-.18l1.07-1.6,1.24,1.07h.18v-.18l-1.24-1.42a24,24,0,0,0,1.6-9.06L305,82.71l.53-.18q-.62-.31-1.24-3.38l.71-.53h-.53v-.36l.89-.18v-.18q-1.24,0-1.24-.53l1.6-2.13v-.18h-.18q0,.53-1.78,1.24h-.36l-2.49-3.38.18-1.07v-.18h-.18c-.09.59-.27.89-.53.89q0-.31-2.13-2.13v-.53Q300.19,66.17,300.19,65.46Zm-30,31.46h.53v-.36h-.18Zm2.13-2.31v.18h.53v-.18Zm.36.89v.36l.36-.36ZM278,67.6v0l-.58.31a.81.81,0,0,1-.31-.71l.18-.53h-.18l-.53.53-.18-.18H276l-1.24.36-.18-.18v-.36q.36,0,.36-.71l4.62-2.67.18.18-.18.18v.53l.36.36h.18q0-2,2.84-2.31,0,.31,1.78.89v.36h.36v-.53a1.22,1.22,0,0,1,.71-1.24H287l.18.18.71-.36A19.78,19.78,0,0,1,298.6,64.4l-.89,2.31.53-.36v.89a2,2,0,0,0-.89,1.42H297l.18-.89-1.42.89-.71-.89.36-1.42H295a1.27,1.27,0,0,1-.53,1.07l-.18-.18H294v.53l.18-.18h.36v.18l-.18.53q-2-.36-2-.71l-.18.18-4.27-.53-1.6.18-.18-.18v-.71l.71-.71.89.18V64.93q.71,0,.71-.53v-.18h-.18a4,4,0,0,1-2.67,1.42l-.18,1.07.18.18v.36h-.36q0-.36-.71-.36v-.53l.53.36.18-.53a1,1,0,0,0-.71-.71l-.89.18-1.6-.71q0,.36-.53.36l-1.6-.36a.63.63,0,0,1-.71.71l.36,1.07-1.24.53v.18h0l-.31.18Zm11.38-.89v.36h.18v-.36Zm.18-.36v.18h.36v-.18Zm1.42.71v.18h.36v-.18Zm2.49.18v.53h.18v-.53Zm.89-2c0,.47-.12.71-.36.71l.18,1.07h.18l.36-.71-.18-.53h.36v-.53Zm1.78,3.55h.53V69l-.36.36-.18-.18Zm1.24.53h.18l.53.18v.71h-.18l-.53-.53Zm.71-1.42v.53l-.36.36h-.18Q297.75,68,298.06,68Zm.71-3.2h.36v.18h-.36Zm1.07.18.36.36-1.07,2.13H299v-.18Q299.53,64.93,299.84,64.93Zm1.6,5v.36h.18v-.36Zm1.78,28.62v.36h.36v-.36Zm2.67-20.26v.18h.36v-.18Zm.36,13.33h.36v-.36Zm0,3.73v.36h.36v-.36Zm.36-18v.18h.36v-.18Zm.36-.71-.18.18v.36h.18l.36-.36-.18-.18Zm.53,7.11v.36l.53.18.18-.18v-.36Z"/><path class="cls-1" d="M319.61,50.18h5l.36.36v3.2l-.53.71h.53v3.73l-1.07.18v.71l-.71,2-.89-.18-.36.53v.71l.18.18v.18q.89-.36.89-1.07h.18l.18.18v.53q-.53,0-.53.36v.18H323q0-.4.71-.71l.18.18h.18l.71-.18h.18V64.4h4.8c.24,0,.36.24.36.71q1.6.27,1.6.89h.18q.22-1.6.71-1.6h.36l.36.36v2.67q0,.36-.71.36v1.07l-.18.18.18.18v.36h-.36V69.2h-.53c0,.36-.12.53-.36.53h-.18l-.36-.36,1.24-1.07v-.18q0-.36-.53-.36L331,68l-2-.71-.36.36-1.78-.36-.71.89v.18l.36.53q0,.27-1.24.71v.18l.71.18.18-.53h.18l.36.36-.53.53h-.71q-.36,0-.36-.53h-.18v.53h-.36l-.71-.71.36-.36V69h-.18l-.53.53-.18-.18h-.89l-.53.36-.36-.36a2.48,2.48,0,0,0,.53-1.6v-.36l-.89-.18-.36.71.18.18v.18l-.18.53q.36,0,1.07,1.6l-.36,1.07.18,1.24-.53,2.49q0,.49,1.07.71V75.6h.36v.71h.18l.89-.18v.18l-.89,2.84.18.53-.53.18-1.24-.53q-1.24.4-1.24.71v.53a8.36,8.36,0,0,0,3.73,4.27,2.13,2.13,0,0,1,1.24,1.78v2.84c0,.24-.24.36-.71.36l-.36.71.71.18q-.49.76-4.8,2.49l-.18.18-.36-.36V70.26h-8l-.36-.36V64.75l.36-.36h8V55.69q0-.36,1.07-.36.89-.62.89-1.07-.36,0-.36-.53l-.18-.18h-.53q0,.89-.53.89h-.36V50.53Zm-.18,16v.18l.18.53q-.71.22-.71,1.6v.36h.18l.89-.18.18.18.53-1.24a1.39,1.39,0,0,1-1.07-1.42Zm4.62,26h.18v.36h-.53v.18a10.09,10.09,0,0,0,1.24,3.2v12.26l-.36.36h-5l-.36-.36V97.46q0-.4.89-.53v-.18H320l-.53.18-.18-.18v-.18l3.91-4.27Zm-3.38,1.6h.53q0,.93-1.78,2.31h-.18V94.61l.53-.53.18.18h.18Zm-.36-41.95L319.61,53v.36l1.07-.71v-.53Zm-.71,46V98H320v-.18Zm1.24.18v.18H321l.53-.18v-.36h-.36ZM321,55.87a5.44,5.44,0,0,0,1.24,2l-.18.18.36.36-.18.18v.18q.36,0,.36.53l.18.18H323l.53-.18v-.18l-.18-.18.18-.18v-.36c-.24-.47-.53-.71-.89-.71v-.36c.36,0,.53-.12.53-.36v-.36c0-.24-.18-.36-.53-.36l-.18-.18V54.8h-.18l-1.07,1.07Zm0,9.78.36.36v-.36ZM322.1,95.5v.36h.36V95.5Zm1.24,5v.18h.36v-.18Zm.18-32.71V68h.53v-.18Zm.18,28.08V96h.36v-.18ZM323.88,63v.71h.18V63Zm.89,28.44.18.18v.36h-.18l-.36-.36.18-.18Zm0,1.42.18.18v1.24h-.36L324.41,93l.18-.18Zm1.78-26,.18.18h.18a2.27,2.27,0,0,1,.71-1.24v-.18l-.36-.36Q326.55,65.51,326.55,66.89Zm2.31,2,.36.36h-.36Zm.53.89h.36v.36h-.36Zm3.56-.18h.36v.36l-.36.36h-.18v-.18Zm0-.71h.36v.36h-.36Z"/><path class="cls-1" d="M335.57,50.18h5l.36.36V69.37a17.46,17.46,0,0,1,13.51-5.87q13.06,0,16.17,10.84a24.16,24.16,0,0,0-4.27,4.27q-.44-.18-2-4.8a21.07,21.07,0,0,0-3.56-3.73l-.18.18h-.18A16,16,0,0,0,353.7,69q-8.84,0-12.09,8.71h-.18l-1.07-.53h-.18v.18q1.24.4,1.24.71v.18l-.18.18v.18l-1.78-.89-.18.18v.18q1.42.36,1.42.71h-.18l-.89-.18q.89,1.07,1.42,1.07l-.18,7.47V98l-.89-.18h-.18v.36q0,.36,1.07.71v6.22l-.18.71.18.71v1.6l-.36.36h-5l-.36-.36v-4.8h.36l.71.18.53-.18V103q0-.44-.71-.53v-.36h.18l.71.53h.18v-.18q-.71,0-.71-.89l.71-.18v-.18a1.92,1.92,0,0,1-1.42-.89h-.36v-.53l.71-.89v-.36h-.18l-.53.36h-.18V96.21a1.65,1.65,0,0,0,1.07-.53h1.07l.71.71q.71,0,.71-1.07,1.24,0,1.24-1.6h.36v-.36q-2.13-.13-2.13-1.78l-.71.18-2.31-.53V50.53Zm1.07,26.48q0,.36.53.36h.18v-.18Zm.36-1.24v.18h.36v-.18Zm.71,26v.18h.53v-.18Zm.53-10.66.53.53V90.7Zm1.6,12.09V103h.36v-.18Zm0,.71v.36H340v-.36Zm.18-8.18v.36h.18v-.36Zm0,8.71v.18h.36V104Zm19-39.28-.18.53.53.18v-.18l-.18-.53Zm6.4,11v.36h.18l.53-.18v-.71Zm.53,3h.18v.36H366Zm1.24,11.38h.18a2.42,2.42,0,0,1,1.24,1.6q.31,0,.89,2.13.49,0,1.24,2.49l-.36.89h.71v.18a2.44,2.44,0,0,0-.71,1.42h-.18L370,98.7h-.18v.36l.18.53a.63.63,0,0,0-.71.71,3.28,3.28,0,0,1-1.78.71,5.19,5.19,0,0,1-1.07-2.31V96.39q0-1.6,1.07-1.6l.18-.53a5.94,5.94,0,0,1-1.07-3.73Zm4.09,6.22.89.89v6L372,104l.18.71v2l-.36.36a54.17,54.17,0,0,0-5.15-5l-.18-.89h.18q.36,0,.36.53h.36l2.67-1.07,1.42-3-.18-1.07Zm-4.8,7.11h.36a10,10,0,0,0,2,3.91v-.18l-.18-.18v-.18l.18-.53-.71-2.13.18-.18q3.55,2.36,3.56,4.09l.18.18-.18.18h-5l-.36-.36Zm.71-23.28h.18v.18l-.36.36h-.18v-.18Zm3.38-5.33q.67,0,1.24,6.22l.18,2.49v.89l.18,1.24-.18.18-.18-.18h-.18l-2.67.53q0-.53-.71-.53v-.18l.89-.71-.18-.89h-.53l-.53.36h-.18l-.36-.36v-.18l.71-.89v-.36h-.18l-.71.36-.18-.18v-.18q.4-1.42.89-1.42l-.18-.18v-.53l.89-.18v-.53h-.71v-.36A3.07,3.07,0,0,0,369,77.19h-.18l-.53.36h-.18v-.18Q368.09,77,370.58,74.88Zm-2,13.69q.8.36.89.71a3.11,3.11,0,0,0-1.6.89l-.36-.36.18-.18h-.36v-.36A1.72,1.72,0,0,0,368.63,88.57Zm-1.24,3.38v.36h.18v-.36Zm.36,3.38v.36h.18v-.36Zm.18-23.46V72h.53v-.18Zm.71,27.73v.18H369v-.18Zm3.38-13,.18.18v9.6l-.36.36q-2.49-3-2.49-5l-.18-.18V90.7a3,3,0,0,1,2.31-1.42V89.1Q369,88.48,369,87.86,369,87,372,86.62Zm-2.84-7.82v.71h1.42l.53-.53-.36-.36-1.07.18v-.18Zm.53,2.49v.18H370v-.18Zm.18,21.68.36.36V103Zm.36-1.78v.36h.18v-.36Zm.18.53v.36h.18v-.36Zm.53-19.55v.18h.36v-.18Zm.18-2.31V80h.36v-.18Zm.18,25.6V106l.18.18h.18V106l-.18-.53Z"/><path class="cls-1" d="M359.87,61.55h.18l.53.53-.36.36h-.36l-.36-.36v-.18Zm2.31,1.24.71.53v.53l-.53.53H362l-.53-.53v-.36Zm3,2,.18.18-.53.71-.36-.36Zm-.36,12.09h.36V77h-.36Zm4.27-17.42h.18q1.6,0,1.6,1.24l-.53.36h-1.07l-.71-.71V60ZM371.25,50l.18.18v.36h-.18l-.36-.36.18-.18Zm1.07,3,.36.36h-.36Zm.36,22.57q1.07.13,1.07.53l-.53.53h-.36l-.53-.53V76Zm.89-25.42h.36l-.36.36Zm19.55-.53h1.42l.36.36v4.44l-.36.36h-.18l-2.67.18-.18-.89H391q-.31,0-.71,1.07h-.18l-.18-.18v-.53a.63.63,0,0,0,.71-.71h-.36q0,.71-1.07.89l-.36-.36a2.15,2.15,0,0,0-1.07,1.6v.53h-.36l.18-.18V56L386.18,55h-.53q0,.31,1.6,1.24l-.18.18v.18l.18.71q-.4.89-.89.89l.18.18v.18l-.89,2.84.18.18-.18.89v2h8.89l.36.36V69.2l-.36.36h-8.71v38.57l-.36.36h-5l-.36-.36V69.55h-1.78v.36h-.18l.18.18v.53A8.52,8.52,0,0,0,375.51,72h-.36c-.27,0-.44-.3-.53-.89l.18-.18h-.36l-.36-.53.18-1.78V64.75l.36-.36H380V62.26l.18-1.78-1.78.18.18.18V61l-.18.18H378V61l.18-.18v-.18q-2.13-1-2.13-2.31,0-.31,2.49-2h.18v1.07q0,.36,1.6.36l.53.71-.18,1.07.18.18V60l-.18.53h.18l.71.18h.89l.89-1.78-.18-.18.18-.89-.71-1.07q0-.4.89-.53l.18.18-.36.71.18.53H384q.27,0,.53-.71-.36-1.07-.71-1.07L382.8,56l.18-.89q-.53,0-.53-.36v-.71Q386,49.65,393.11,49.64ZM374.63,73.28h.53v.18l-.53.53h-.53v-.18Zm.89-17.06.71.71v.18l-.53.53H375l-.71-.53A1.17,1.17,0,0,1,375.51,56.22Zm.53-6.58V50h-.36Zm0-.71h.89v.18l-.36.36-.18-.18-.36.36Zm2,3.2h.36l.18.89q-.36,0-.36.53h-.36l-.18-.53Zm2,2.31h.18l.71.71v.18l-.36.36h-.36Zm1.78,4.09h.36v.18h-.36Zm3,.71-.18.53.18.18h.36l.36-.36-.36-.36Zm.18-3.2v.53h.36V56Zm.18,2.67v.36h.53l-.36-.36Zm.36-2.13v.36h.18v-.36Zm.53.71v.36h.18v-.36Zm3-4.44v.53h.18v-.53Zm1.78-2.67v.36H391v-.36Zm1.42-.36v.36h.36Zm.71,16q.27.71.53.71l.89-1.78h-.18Z"/><path class="cls-1" d="M396.8,64.22h1.78l.53.36.18-.18v.53h.18l.18-.71h1.24v.18A2.33,2.33,0,0,0,400,66l.71-.53.18.18,1.07-.36h.18V66l-.18.18.18.18v9.42L402,76l.18.18v1.07l-.36,1.07L402,79l-.18.18.36.36v9.78l-1.24,1.07v.89A7.52,7.52,0,0,1,403,96l2,4.62-.18.18h.71v.36a29,29,0,0,1-5,2.31l-.18.18q-3.91-4.35-3.91-19l.36-.36-.36-.53v-3l.36-.53-.36-.53V67.77l.18-1.07-.18-.89V64.57Zm0,2v.18h.36v-.18Zm.18-.36.18.18h.18l.18-.18v-.36h-.18Zm.18,6.22v.36h.18V72Zm.36-5.33v.36h.18v-.36Zm.18,5.87v.36l.53.18.18-.18v-.36Zm.18,14a1,1,0,0,0,.71.71v-.18Zm.71-18,.36.36v-.36Zm0,21h.36a1.1,1.1,0,0,0,1.24-1.24A4.37,4.37,0,0,0,398.58,89.64Zm.71-21.33-.18.53h.36v-.53Zm-.18,13.51v.36h.18v-.36Zm.71-3.38v.36L400,79v.18q1.42,0,1.42-.89l.18-.53h-.18q-.71,0-.71-.53A1.17,1.17,0,0,0,399.82,78.44Zm.53-2v.36h.18v-.36ZM401.42,104h.71v.36l-.53.53h-.18l-.36-.36v-.18Zm3-1.6h.71v.36l-.53.18q.62,3.56,2.84,3.56l1.24.71,1.24-.18-.53.71h.18q0-1.07,5.15-2.84h.71a2.65,2.65,0,0,1,1.42,2.31h.36a2.79,2.79,0,0,1,1.07-2.31h.36q.53,0,1.24,3.73a10.46,10.46,0,0,1-4.44.71h-1.24l-1.07-.18-.71.18a14.9,14.9,0,0,1-10.66-4.09A10.47,10.47,0,0,1,404.44,102.43ZM403,105.81v.36l.36-.36Zm.71.53v.18h.36v-.18Zm.71-.18v.18h.36v-.18Zm2.84-3.73q3.2,1.07,3.2,1.42l.53-.18,3.91.36v.18q0,.4-2.49,1.07,0,.44-2.84,1.42l-.36-.36h-.18l-.18.53q-1.42-.53-1.42-1.24l-.89.18v-.18q0-.53-.71-.53a3.6,3.6,0,0,1-.53-1.78A4.06,4.06,0,0,1,407.29,102.43Zm-.89-.89.36.53v.18l-.71.18-.53-.18v-.53Zm0,3v.36h.18v-.36Zm10-.71h.71l.53.53v.36l-.36.89-.89-1.6Zm7.29-1.07,1.78.89.36-.36q.13,1.25.53,1.24l.71-.89.18.18v.36q-4.36,4.27-6.58,4.27l-.53-3.55q.4,0,.53-.89H421q0,.4.71,1.07l.53-.18V104l-.36-.53.53-.36,1.24.89v-.18l-.18-.89Zm-.18,1.6v.36h.18v-.36Zm1.24,1.24v.18h.36v-.18Zm1.07-3,.18.18v.53l-.53-.53.18-.18Zm7.47-14.22.18.18v5.87c0,.24-.18.36-.53.36v.36h.53v12.8l-.36.36h-2.31l-.71-.18-.71.18h-1.24l-.36-.36v-3.38l1.42.36v-.18l-.36-.89H429l3.91,3.73a31.11,31.11,0,0,0-4.8-5.15l-.18-.53h-1.07V101H427q.53,0,.53.71h.18v-.18l-.36-1.42,1.6-.53v-.18q-1.24,0-1.24-.89l2.49-1.24.36-.36v-.18h-1.42l.36.53v.18h-.36l-1.24-.18v-.71q0-.35,1.42-.71l.36-.53q-1.07-.22-1.07-.53l.18-.18H429l.18.18q0-.8,2.31-2l.18-.18v-.18l-.89-.18.53-.53.53.36H432l.36-.36-.18-.18.53-.18v-.18q-.53,0-.53-.36l.89-.18v-.18q-1.07,0-1.07-.89Zm-5.15-24.17h5l.36.36V87.68q0,.4-1.78,1.07h-.53L430,88.57l-.53.18a10.28,10.28,0,0,0-1.78-2.67v-6.4l.36-1.6h-.36v-.89a1.46,1.46,0,0,1,.71-1.24l.18-.53h-.18l-.71-.18V64.57Zm0,33.24V98l-.36-.36.18-.18ZM429,75.77l-.71,1.6v.36h.18l.71-1.78v-.18Zm-.53-2.49v.36h.18v-.36Zm.18,11.55v.53h.18L429,84.3Q428.62,84.3,428.62,84.84Zm.53-11.91v.18l.36-.36v-.18Zm.36,5.87-.18.89v.18h.18l.18-.71v-.36Zm-.18,16V95h.53v-.18Zm.53-24.17V71H430v-.36Zm.36,3V74h.18v-.36Zm0,27.55v.36l.53.53h.18v-.36Q430.93,101.46,430.22,101.19Zm.53-28.44v.36h.18v-.36Zm0,22.22v.18l1.42.18V95Zm.89-29.51v.18h.18l.18-.71Q431.64,64.93,431.64,65.46Zm0,14.4v.36h.18v-.36Zm0,16v.36h.18l.36-.36ZM432,64.4v.36h.18V64.4Zm0,2.84v.18h.18l.18-.71C432.11,66.71,432,66.89,432,67.24Z"/><path class="cls-1" d="M435.73,50.18h5l.36.36V75.6h-.36v-.36h-.36l.18.89-.18.18H440l-.18-.71-.18.18h-.18q-2-.27-2-.71h.18l1.42.36q0-.36.71-.36v-.18q-4.27-1.69-4.44-2.13V50.53Zm-.18,23.11,1.42.53v.53h-.18q-1.42-.58-1.42-.89Zm.36,1.6h.89a1.92,1.92,0,0,0,1.42.89v.36l-.89-.18a2.51,2.51,0,0,1,.71,1.78l-.71.36-1.42-.36v.18l.18.53h-.18l-.18.18h-.18l-.18-.18v-3.2l.89.18Zm2.84,2.49q1.24.62,1.24.89-.22,1.24-.71,1.24l.18.18V80l-2.13.53v.18h.18l1.42-.36v.18c0,.24.18.36.53.36l.18.18v.18l-.53.18.18.18v.18a4.43,4.43,0,0,1-1.78,1.24q0,.71-.53.71h-.18v.18h.36v.18l-.18.18v.18h.71l-.18.18v.18l.89-.36-.18.18v.18l.18.18-.18.18.36.36-1.24.71a.47.47,0,0,0,.53.53v.36l-.36.36q0-.4-1.78-.71l-.36-.53.18-.53-.18-.89V79.51q0-.44.71-.53l1.24.18-.18-.18v-.36l.89.18h.36l-.18-.18v-.36h.89v-.18q-.89-.13-.89-.53Zm-3,10.13h.36l.18.18.18-.18h.36v.36h-.36v.53l.18-.18h.18l.18.18v.53l-.36.36q-.31-.71-.71-.71l.36-.53-.89-.18Zm1.07,5.87H437l.18.18.18-.18h.36v1.24c0,.24-.18.36-.53.36v.18h.36v.36l-.71.71-.36-.36h-.18V96l.53.53-.18.18v.89l.36.53-.36.36h-.18q0-.4-1.07-.71V94.08l.53-.53h.18q.31,0,.71,1.24H437v-.36l-.18-.18h.53v-.18q-.53,0-.53-.36Zm.89,4.8q.89,0,.89.36l1.24-.18h.89l.36.36v9.42l-.36.36h-5l-.36-.36v-6.58l.18-.18.53-.18V101l-.18-.89.18-.18-.71-.71.18-.18h.18l.18.18h.18Q436.08,98.88,437.68,98.17ZM435.9,71.33v.18l.89.18-.36-.36Zm0,11.91v.36h.18v-.36Zm.53,7.64v.36h-.36Zm.18-12.62h.18l.18.53h-.18l-.53-.18Zm-.36,5.33v.18h.36v-.18Zm.18-1.78V82h.36v-.18Zm.36-2.31v.18h.53v-.18Zm.53,10.67H438v.89l.18.18v.18h-.36a.79.79,0,0,0-.89-.89Zm1.07-13.69,1.07.18.53-.18.18.18v.18L440,77l.18.18v.18l-.18.18v.18l-1.6-.71Zm.53,8.18.36.36v.18h-.36l-.36-.36.18-.18Zm.71-4.44.18.18v.36h-.18l-.36-.36.18-.18Zm-.36,6.58h.36v.36h-.36Zm.18-15.29v.18h.36v-.18ZM440,86.26h.36v.18H440Z"/><path class="cls-1" d="M455.1,76h.36l.36.36v1.07l-.53.53.53.89V79l-.36.71-1.6-.71.18-.53h-.36v-.53Q453.68,76,455.1,76Zm3.38-2q1.51.49,1.6,1.24l-.89,1.24.18,1.07-.89,1.07h-.18q-1.07,0-1.07-.71.36-1.78,1.42-1.78l-.36-2Zm3-23.64h18.13q19.69,0,26.66,18.66a35.21,35.21,0,0,1,1.6,10.31q0,11.69-6.58,19.37h-.71l.18.18v.18q-1.73,3.56-7.82,6.4a1.46,1.46,0,0,1,.71-1.24q0-.44-1.24-.89l.18-.18v-.36l-2-.53a2,2,0,0,1-1.07,1.78h-.71l.18.71q-.27,1.78-.53,1.78l.18.18v.36q0,1.11-13,1.42H461.5l-.36-.36V89.28l-.18-3,.18-2.67v-2L461,76l-.18.18h-.18l-.36-.36.89-.71V50.71Zm-1.24,27.37h.36v.36h-.36Zm1.07,4.09V82h.36v-.18Zm.71,1.24v.18l.53.18.18-.18v-.18Zm.89-8.71v.36h.18v-.36Zm3.91-18.49V72l-.18.18.18.18V103h11a31.37,31.37,0,0,0,14-3h.18l1.6.71.18-.53,1.78.53q.36-.71.89-.71l-.36-1.07q0-.36.89-.36l-.36-.36-.71.18-.18-.18v-.71h.71a2,2,0,0,1,1.24.53v-.53h.18l.71.71-.18.71q.71-.27.71-.53l.18.18h.36l1.24-.36.18.18-.36-.71.18-1.78-.18-.18V95.5l.53-3.2v-.18l-.89-.18-.36.36h-.18q0-.89-.36-.89l-.18.18v-.18l1.24-3.2.89.18q1.24,0,1.24-.89l-.18-.53.18-.18L501.14,85a33.72,33.72,0,0,0,.53-6l-.18-3.55,3.2-2-3.38.71V74q2.71-3.73,4.44-3.73v-.36h-.36q-.71,0-4.09,3.38H501q0-.89-.36-.89l.18-.18-1.6-4.8.18-.18q-.53,0-.89-1.07A22,22,0,0,0,491,58.53q-3.51-2.67-15.82-2.67Zm6.75,51.19v.36h.18v-.36Zm.36-1.6v.18l.36-.36v-.18ZM475.36,74h.36l-.36.36Zm11.2-13.69.36.36-.18.18h-.53v-.18ZM487.81,104H488l.53-.53h-.18Zm.89-42.3H489l.18.71-.53.36-.53-.53Zm2,40.17v.18H491v-.18Zm.89-38.22V64h-.36Zm-.18,11.73h.36v.18h-.36Zm1.24,26.66v.36l.36-.36Zm.89-3.38h.36v.36Zm2.13,2.13-.53,1.6.18.18q.71-.09.71-1.24h.18l-.18-.53Zm3-.89v.18H499v-.18Zm1.24-25.6.18.18v.18q0,.36-.53.36l-.53-.18v-.36Zm1.6-19.2h.71l.36.36v.18l-.36.36h-.53l-.53-.53Zm-.36,14.75v.36h.36v-.36ZM502.38,71v.18h.18l.89-.18V70.8h-.53ZM505,55.15h.18v.36l-.36.36.18.71h1.42l.71.71a1.61,1.61,0,0,1-1.42,1.78v-.18l-.18.18h-.71a5.38,5.38,0,0,1-2.13-1.6v-.36a4.08,4.08,0,0,1,2-1.42C504.69,55.33,504.81,55.15,505,55.15Zm-2.31,14.75v.18h.36v-.18Zm.71,19.2v.53h.18a2.43,2.43,0,0,0,1.24-1.07v-.18Q503.45,88.62,503.45,89.1Zm1.42-37.86v.18l-.36.36V51.6ZM505,68.66V69h.36v-.36Zm1.42-15.46h.36v.18h-.36Zm.36.36h.36v.53h-.36Z"/><path class="cls-1" d="M503.31,104.17q1.07.45,1.07,1.24l-.71.53H503l-.53-.53v-.71Q502.42,104.39,503.31,104.17ZM503,96.88l.36.36v.18l-.36.36-.36-.36v-.18Zm1.42,6.75.36.36-.53.53H504l-.18-.71.18-.18Zm2.31-2.67h.18l.71.89V102l-.36.36H507l-.71-.71v-.36ZM530.33,62.4q9.82,0,18.13,8.53L531.22,88.17q-.36,0-.36-.53h-.36V88l.18.89-3.56,3.38h-.53l-.18-.71h-.36q0,.53-.36.53a2.74,2.74,0,0,0-1.6-.89v.18l.18.53h-.18l-.53-.36v.18q1.55,1.78,2.13,1.78l-2.67,3q.71.09.71.53v.36l-.53.53h-.36q-.44,0-.53-.71l-1.78,1.6q0,.4,2.13,1.78V101l-.89-.18V101l-.36.36.18.18v.36h-.53V102q.89,0,.89.53L520.73,104v.18a3.13,3.13,0,0,1,2.31-.89l-.36-.71.18-.18H523q.31,0,1.07,1.6l.18.18q.62,1.07,1.24,1.07v.36h.53q.36,0,.53-1.42l-.18-.53h.18c.36,0,.53-.12.53-.36v-.89h.18l.18.18h.18v-.36h-.36l-.18.18q-.89-.36-.89-1.07.36-.8.71-.89h.53q.53,0,.53,1.07.53,0,.53-.71h.36q0,.44,1.07.89h.53q.36,0,.36-.53.89,0,.89.36l.18-.18h.18q1.07.22,1.07.89h.36l-.18-.18v-.18l.71-.89q.53,0,1.42-1.07l-.18-.18v-.36l.71-.18a3.16,3.16,0,0,0-1.42-1.78v-.53h.18q.36.09,1.6,2l.71-.53.36.36h.18v-.71H538v.18l-.18.18v.18l.18.18h.18l.71-.18q0,.36.89.36a.79.79,0,0,0,.89.89q0,.71.36.71l.71-.18v.36q-.89,0-.89.53l.18.18-.18.18v.36q.53,0,.53.36l-.18.18v.18l-.18-.18h-.53q-.89.67-.89,1.24h-.18l-.53-.36-.36.53v.36l.36.53v.36q-.36.71-.89.71l-.89-.71-.53.18-.36-.36-.53.36-.36-.36h-.18a1.43,1.43,0,0,1-.71,1.07v.36l-1.07-.36q-.76,0-2.31,1.78,0,.53.71.53l.18.18v.36h-1.24l.18-.89a.47.47,0,0,0-.53.53l-.18.18h-.89l-.36-.36-.18.18h-.36v-.36l-.53.36q0-.36-.53-.36l.18-.18v-.36q-.53,0-.53.71-.36,0-.36-.71h-.18q0,.53-.36.53l-.89-.18v.18l.36.53v.53l-.53.53-.71-.71.71-1.07q-9.64-3.38-14.22-11.38a22.71,22.71,0,0,1-3-11.2q0-12.09,12.09-20.08A19.9,19.9,0,0,1,530.33,62.4Zm-22.22,38.22h.18l.36.36-.53.53-.36-.36V101Zm5-3v.18l.89.18.53-.18v-.18ZM513.27,85a17,17,0,0,0,3.91,10.31l3.2-3.38q0-.31-1.42-.89v-.36l.53-.53,1.07.36.89-.36.18.18-.18.18v.36a1.84,1.84,0,0,1,1.24-.36l-.18-.18v-.36l18-18.13q-5.91-3.55-10.66-3.55h-.36q-8.58,0-14.75,10A19.18,19.18,0,0,0,513.27,85ZM515,98.48v.36l.36-.36Zm3.2,13.33h.53l.36.36-.18.89h-.71l-.36-.36v-.53ZM519,97.24l-.18.18v.18l.53.18.18-.18v-.18Zm.53,5.69H520v-.36h-.18ZM522,99h.18v.36H522Zm.71-8.35v.18l.36.36h.18Zm0,2.67v.18l.36.36h.18v-.18l-.36-.36Zm2,21.69.53,1.24-.53.36h-.36q-.36,0-.36-.53Q524.33,115,524.64,115Zm0-16.71.18.18.18-.18h.18q.53,0,1.07,1.07a1.76,1.76,0,0,1-.89,1.07H525l-.71-.71V98.66Zm-.36,7.82v.36h.18v-.36ZM526.42,118l.89,1.42q-.62,1.24-1.42,1.24-1.24,0-1.24-1.78Zm-1.07-27.55v.71h.53v-.71Zm0,13.33h.36v.36h-.36Zm.71,2v.18l.71.89-.18.53H527V107h.18l-.53-1.07.18-.18Zm.53-17.42v.18l.36.36V88.7Zm2.13,5.33.36.36-.36.36-.36-.36Zm3,3,.18.18v.18l-.36.36h-.18v-.36Zm2,11.55h.36v.18h-.36Zm6-.71h.36q.36,0,.36.53.89.22.89.53V109l-.36.36h-.36l-.18-.18-1.24-.89v-.18Zm1.07-12.62h1.24l.18.18.18-.18h.36l.18.89-.18.18.18.18-1.07.71h-.71q-.27,0-.71-1.24Q540.82,95.64,540.82,94.92Zm.36,6.4h.18v.36h-.18Zm.89-1.24h.36v.36h-.36Zm9.78-23.64a22.91,22.91,0,0,1,2.31,10.31,20.12,20.12,0,0,1-7.47,16q-.89,0-.89,1.07l-2.13,1.6h-.36v-.53l-.89.18v-.18a3.2,3.2,0,0,1,.71-1.6v-.53l-.18-.18v-.18l.18-.18,1.42.36h.18l.53-.53v-.18q0-.8-2.13-3l.36-.53-.36-.36v-.53q0-1.42,1.6-1.42l.71.18a15.57,15.57,0,0,0,3-8.53v-.36l-.53-.18v-.36l.53-.89-1.07-5.15Zm-4.62,10.49h.36l.36.36v.89l-.89.18-.36-1.07Zm2.67,15.46h.36v.36h-.36Zm1.42.18.18.18v.53l-.53.53h-.36l-.36-.36v-.18A1.14,1.14,0,0,1,551.31,102.57Zm4.62,6q.71.27.71.53l-.71.71q-.71-.27-.71-.53v-.18Q555.22,108.7,555.93,108.61Zm1.42-4.27.36.36v1.07q0,.31-.89.53l-.53-1.24a.47.47,0,0,0,.53-.53l.18-.18Zm.53-2,.53.53-.53.53h-.18c-.27,0-.44-.3-.53-.89l.18-.18Zm1.24-4.27q.27,0,.53.71,0,.49-1.24,1.07h-.53l-.36-.36.36-.36q.36,0,.36-.89l.18-.18Zm.18-4.44h.36L560,94v.18l-.36.36h-.36l-.36-.36V94Zm.71-8h.18l.53.53v.18l-.36.36H560l-.53-.53Z"/><path class="cls-1" d="M568.77,62.26,569.83,64h.36v-.36q-.89-.93-.89-1.42h.18q8,0,11,7.82-1.78,0-1.78,1.24,0,.89,1.78,2.67v.36h-5q-.44,0-1.07-3A6.18,6.18,0,0,0,568.59,68h-.53q-6,.93-6,6v.71l.18,1.6-.18.53a12,12,0,0,0,6.4,4.62q7.11,2,8.35,3.38l-.18.18v.18h.18l.53-.18,1.24,1.24v.18q-.49,1-3,2.13v.36h.18q.8,0,2.84-2.13v-.18h.36a2.84,2.84,0,0,1,1.24,1.78H580l-.36.36v.18l.89-.18A12.24,12.24,0,0,1,581.92,95v.89q0,8.58-9.42,12.09a13.53,13.53,0,0,1-3.73.53h-1.6q-9.38,0-12.62-10.49L554,93.73l.18-.18h5.33q.27,0,.89,3.91,2.53,5.69,7.82,5.69,7.46-1,7.47-7.47t-10.84-9.42Q556,82.79,556,75.77v-2q0-7.55,9.24-11.2Zm-8.89,15.29.36.53a.84.84,0,0,0,.71-.89l-.18-.18h-.53C560,77,559.88,77.19,559.88,77.55Zm.89-1.78.18,1.07.53-.18v-.36l-.53-.53Zm.71,1.24v.18l.53.53.18-.53Zm14.4,13h.53v-.36h-.18Zm.53-20.09v.36h.18Q578,70,578,69h-.18ZM578,87.68v.18h.53v-.18Zm.36.89v.36h.18v-.36Z"/><path class="cls-1" d="M576.19,81.28h.53l.53.53v.53l-.71.53q-.44,0-.89-.89Zm.71,5h.18l.36.36V87l-.36.36h-.18l-.53-.53Zm7.29-21.86h5l.36.36-.36.36.36.36V91.59l-.18.18.18.18v16.17l-.36.36h-5l-.36-.36V98.7H584a7.73,7.73,0,0,1,3,3.91h.36v-.18q0-.93-3.55-4.44V95.5q1.78-1.38,1.78-2.67l.71-1.07-.18-1.24.18-.18q-.58,0-1.78-3.2v-.71h-.18l-.18.18H584l.18.89V88q.84,0,1.42,2.31l-.18.89q.53,0,.53.36l-.18.18a1.28,1.28,0,0,0-.36,1.07h-.71l.18.89a.63.63,0,0,0-.71.71h-.36v-.36l.18-.18-.18-.18V87.5a2,2,0,0,0-.89-1.42V85.9l-.89.18-.71-.53-.18-.18v-.18l.89-.71h.36q.36,0,.36,1.07a5.21,5.21,0,0,0,2.13-1.78l1.42-.36v-.36A2.84,2.84,0,0,1,583.83,82q0-1,3.73-1.42,0-.27,1.24-.36V80l-.36-.36L587,80l-.18-.18h-.18l-2.67.36-.18-.53.18-.89-.18-2V73.46l.89.18h.18q.93,0,1.07-.53l-.36-.36-.71.18-.53-.18-.53.18V71.68l.18-.18-.18-.18V71q0-1.16,2.67-2.84V67.6h-.18l-2,1.78-.53.18v-4.8Zm0-14.22h5l.36.36v8.53l-.36.36h-5l-.36-.36V50.53ZM584,82.88l.71.18v.36h-.53l-.36-.36Zm.53-7.47v.18h.36v-.18Zm.36,21.51v.36h.36Zm.36-1.24V96h.18v-.36Zm.18.53v.36h.18v-.36Zm.36-30.75v.18h.36v-.18ZM586,76.31v.18h.36v-.18Zm.18-2.49v.36h.18v-.36Zm0,25.6v.18l.18.71h.18v-.36l-.18-.53Zm.89-1.6-.18.18.18.53h.53ZM587,66v.36l.36-.36Zm.18,8.53-.18.53h.36l.36-.36v-.18ZM587,99.59l.36.36v-.36Zm.18-29.33v.18q0,.27,1.24.89H589V71l-.36-.53v-.53H589v-.18h-.18l-.53.18-.36-.36ZM588.1,87l.36.36h.18V87Zm.18,5.15.36.36v-.36Zm0,9.6v.53h.36v-.18Z"/><path class="cls-1" d="M613.83,62.58h1.78q9.29,0,15.46,7.82V68.26l.36-.53-.36-.36V63.82l.36-.36h5l.36.36V73.6h-.36a.63.63,0,0,0-.71-.71l-.18.53.18.71-.18.53.18.53h.18l.89-.18v.53l-.18.89.18.18-.18.18a7.78,7.78,0,0,0-2.84-1.6v.36l.53.89h-.36l-3.73-3.73-1.42-1.24v.18q.27,0,1.24,1.6.31,0,2.49,2.67,2.67,2.09,2.67,2.84l.18-.18h.18l.18.18.18-.18H636l.36.36v.89H636v-.36h-.53l.18.89v.36a3.18,3.18,0,0,1-2,.89v.18q1.42,0,1.42.53l.18.53h-.18l-1.6.71v.18q0,.36,1.42.53l.18.18v.18l-.18.18.18.18v.18q0,.36-1.42.53l-.71.89,1.24.18v.53h-.36l-.53-.36h-.53v.18q.89,0,.89.36-.13.67-3,2v-.18q0-2.31,1.07-2.31v-.18q-.71,0-.71-.36V86a18.51,18.51,0,0,0-4.27-12.26l-.18.18h-.36l-.18-.18-.18.18h-.18q-1.29,0-1.6-.89a.63.63,0,0,1-.71-.71l.18-1.6L622.54,70l-.71.53h-.18v-.71l.18-.18v-.18a18.05,18.05,0,0,0-7.47-1.78q-9.47,0-14.93,10.13A19,19,0,0,0,598,85.33v.36l.18,3q-3.91,3.51-3.91,4.44l-.89.53A16.89,16.89,0,0,1,592,86V84.79q0-14,14-20.8A21.55,21.55,0,0,1,613.83,62.58ZM592.5,84.44H593v-.36h-.18Zm0,5.15v.18h.36v-.18Zm.71-.18v.18h.36v-.18Zm5.87,2.67h.18a16.87,16.87,0,0,0,8.35,9.6,17.79,17.79,0,0,0,7.29,1.6q7.55,0,13.51-8l2.49-1.07,1.78.36.36-.36h.18q0,.71,2.13,3v-.36h.36q.13.89.53.89l.18-.18.36,1.42v3.55l-2.84,6.4q.31,0,2.31-4.62h.18l.18.18v.18L634.45,110l.53.18.53-2h.36a18.73,18.73,0,0,1-3,7.29v-.36h-.18l-.18.53.18.53q-6.27,8.53-17.6,8.53-14.13,0-19.37-12.09l-.36-1.42.18-.18h6q.31,0,2,3.38l4.62,3.91,3,4.8h.36v-.36l-3-4.44v-.18a22.81,22.81,0,0,0,5.33.89h1.78q9.91,0,14.4-10.66a20.19,20.19,0,0,0,1.07-6.22v-2.13h-.18q-6.09,8.53-16.17,8.53a21.72,21.72,0,0,1-18.84-10,13.26,13.26,0,0,1-2.31-4.09Zm-5-2.13v.36l.36-.36Zm.89-2.31.18.18h.36l.36-.36V87.1h-.18Zm3,1.42q.53.18.53,1.07l-.18.71q.53,0,.53.36v.36l-.18.18v.18l-1.24-.36-.36.36-.18-.18h-.18q0,.71-1.42.71v-.18l.18-.18a13.59,13.59,0,0,1,2.31-2.84Zm-2.49-.18v.18h.36v-.18Zm1.42-1.6.36.36.18-.18v-.18Zm0,1.24v.18h.36l.53-.18v-.18h-.36Zm.18-2.84V86h.18v-.36Zm3.2,13.69v.18h.36v-.18Zm1.24-36.79h.53v.36h-.53Zm10.67,41.24v.71h.18c0-.24.18-.36.53-.36l.18-.18v-.18l-.18-.18Zm4.09-35.19h.53v.18l-.36.36-.18-.18Zm0,2.13h.36l.36.36-.36.36-.36-.36Zm.71,35.37v.36h.18v-.36Zm2.31-44.26V62l-.36.36-.36-.36.18-.18Zm1.78,41.06v.18h.36v-.18Zm4.27-35,.89,1.07h.18Zm2.13,3.38v.36h.36v-.36Zm.89,24.17v.36h.18v-.36Zm.89-1.42v.36l-.36.36h-.18v-.18Zm.71-1.6h.18l.18.71-1.07.89v-.18Q629.51,92.57,630,92.44Zm.53-2.67,1.42.18-.71.71h-.18l-.53-.53Zm1.07-11.2v.36l.53.53h.36v-.18A.84.84,0,0,0,631.6,78.57Zm0,34.13v.36h.18v-.36ZM632,69.33v.18l.18.53-.36.36v.36q.09.4.89.71.49,0,1.24-1.6l-.18-.53h-.36l-.71.53h-.18q-.36,0-.36-.53Zm0,32.17v.36h.18v-.36Zm.36-17.42.18.18v.18l-.36.36,1.6.18h1.07v-.18q-1.6,0-1.6-.89Zm.36-1.07v.18H633V83Zm.18,23.28v.18H633l.53-1.78Q633.2,104.7,632.85,106.3Zm.53-5.15-.18.53v.18h.18l.18-.53v-.18Zm-.18,11.91v.36l.36-.36v-.36Zm.53-3.91v.36h.18v-.36Zm.53-11-.36,1.24v.18h.18l.36-1.24v-.18Zm.53,9.78v.36H635v-.36ZM635,83.37h.36l-.36.36Zm.36-4.44v.36h.18v-.36Zm.53,16,.36.36v.18h-.36l-.18.18-.36-.36V95.1l.18-.18ZM635.69,96H636v.18h-.36Zm.71-21.86h.36v.36h-.36Z"/><path class="cls-1" d="M658.62,63.51a17.8,17.8,0,0,1,11.55,3.73v.18q-2.93,3.2-3.38,3.2l.18.18V71l-.36.36h-.36q0-.44-.89-.53L665,69.55h-.18v.71a2.29,2.29,0,0,1-1.42-.71l-.18.18v-.18l.18-.71-.53-.18q0,.89-.53.89a2.65,2.65,0,0,0-1.6-.36l-1.07-1.42h-.18v.53h-.18L659,68l.36-.53v-.18l-.71-.36h-.18v.36h-.18q0-.71-.36-.71,0,.89-.36.89h-.18L656,66.17h-.18v.18a1.53,1.53,0,0,1,.89,1.6v.71q0,.49-3.55,1.07l-3,1.42-.71-.36H649V71l.89.18-.18.18v.18a9.7,9.7,0,0,1-3.2-1.42l-.36.36.18.18-.18.18A6.41,6.41,0,0,0,648.67,72v.36q-2.58,2.22-3.73,8.35l-.18.18h-.18l-1.24-.36q-3.56,1-3.56,3.38a3.19,3.19,0,0,0,2,.53l.89-.36.18.18v.36h-.89V85q0,.36.53.36T643,84.3l.89-.36h.71l.36.36V88l-.18.18.18.18v5.87l-.18.18.18.18v13.51l-.36.36h-5l-.36-.36V92.3l.18-.18-.18-.18V90.7q1.24-.4,1.24-.89l.18.18h.18q0-.36,1.07-.53V89.1l-.36-.36H641q-.36,0-.36.53h-.18l-.53-.36-.71.18V86.44l.18-.18-.18-.18V64.75l.36-.36h5l.36.36V69.2Q650.13,63.51,658.62,63.51Zm-19,30.39v.18H640V93.9Zm.18-26.66v.18h.36v-.18Zm0,3.91v.36H640v-.36Zm.53,14.4v.36l.89.18v-.36Zm3,.53q0,1.07-1.6,1.07l-.18-.18-.53.89.53.71.18-.18h.18q1.24.4,1.24,1.42l.18.18h.53q.31,0,.53-.89l-.53-.53.53-.18v-.18l-1.07-.71H643v-.18l.71-.89v-.36Zm-2.13,6.75v.36h.18v-.36Zm.89,2.84-.36.53h.18l.36-.53Zm1.07,0v.18h.18V95.5c.36,0,.53-.12.53-.36V95Zm.53-6.75H644v.36h-.36Zm.53-19.55v.18h.36v-.18Zm2.67.36v.18l.89.36H648v-.18l-.89-.36Zm1.42.71v.18h.36v-.18ZM649,69.2v.18h.53V69.2Zm8-4.09.36.36v-.36Zm4.27,1.24v.36h.36Zm.18.89v.36h.18v-.36Zm0,.89v.36h.18v-.36Zm1.07-3.91v.71h.36v-.36Zm3.91,4.09-.18.53h.53l.18-.53Zm4.27-.71,1.07,1.07-.18.18,1.6,1.42Q676,74.62,676,83.59v24.53l-.36.36h-4.8l-.36-.36V92.48h.18l.89,1.42h.18v-.18q0-.49-1.24-2V86.62l.36-1.42v-.71q-.53,0-.71-5.15l.71-.18v-.36q-1.07,0-1.07-1.24,0-.4,3-.89v-.36h-.71l-.71.18-.18-.18h-.18l-1.07.18h-.53a8.9,8.9,0,0,0-1.6-3.56l.36-.36L668,72.4h-.18l-.18.18h-.18l-.18-.18v-.18l.53-.18.18.18h.18l.53-.18v-.18q0-.36-.53-.36v-.18a2.74,2.74,0,0,0,.89-1.6h-.53v-.18Q670.26,67.6,670.71,67.6ZM669.11,71v.18l.36.36h.71l.53-.53-.18-.18h-.18l-.71.18V70.8Zm1.78,20.62v.36h.18v-.36Zm.53-1.24v.36h.36v-.36Zm.18-17.77h.18l.36-.36h-.18Zm.71,9.24V82h.36v-.18Zm.18,11.38v.36h.18v-.36Z"/><path class="cls-1" d="M692.92,62.26,694,64h.36v-.36q-.89-.93-.89-1.42h.18q8,0,11,7.82-1.78,0-1.78,1.24,0,.89,1.78,2.67v.36h-5q-.44,0-1.07-3A6.18,6.18,0,0,0,692.75,68h-.53q-6,.93-6,6v.71l.18,1.6-.18.53a12,12,0,0,0,6.4,4.62q7.11,2,8.35,3.38l-.18.18v.18h.18l.53-.18,1.24,1.24v.18q-.49,1-3,2.13v.36h.18q.8,0,2.84-2.13v-.18h.36a2.84,2.84,0,0,1,1.24,1.78h-.18l-.36.36v.18l.89-.18A12.24,12.24,0,0,1,706.08,95v.89q0,8.58-9.42,12.09a13.53,13.53,0,0,1-3.73.53h-1.6q-9.38,0-12.62-10.49l-.53-4.27.18-.18h5.33q.27,0,.89,3.91,2.53,5.69,7.82,5.69,7.46-1,7.47-7.47T689,86.26q-8.89-3.47-8.89-10.49v-2q0-7.55,9.24-11.2ZM684,77.55l.36.53a.84.84,0,0,0,.71-.89l-.18-.18h-.53C684.15,77,684,77.19,684,77.55Zm.89-1.78.18,1.07.53-.18v-.36l-.53-.53Zm.71,1.24v.18l.53.53.18-.53ZM700,90h.53v-.36h-.18Zm.53-20.09v.36h.18q1.42-.22,1.42-1.24H702Zm1.6,17.77v.18h.53v-.18Zm.36.89v.36h.18v-.36Z"/></svg>